PathFileType	4	(X/Y/Z)	15_2_45_p0_0-573_filt_butterworth.trc
DataRate	CameraRate	NumFrames	NumMarkers	Units	OrigDataRate	OrigDataStartFrame	OrigNumFrames
60.0	60.0	5	27	m	60.0	143	573
Frame#	Time	RHip			RKnee			RAnkle			RBigToe			RSmallToe			RHeel			LHip			LKnee			LAnkle			LBigToe			LSmallToe			LHeel			Neck			Head			Nose			RShoulder			RElbow			RWrist			RThumb			RIndex			RPinky			LShoulder			LElbow			LWrist			LThumb			LIndex			LPinky			
		X1	Y1	Z1	X2	Y2	Z2	X3	Y3	Z3	X4	Y4	Z4	X5	Y5	Z5	X6	Y6	Z6	X7	Y7	Z7	X8	Y8	Z8	X9	Y9	Z9	X10	Y10	Z10	X11	Y11	Z11	X12	Y12	Z12	X13	Y13	Z13	X14	Y14	Z14	X15	Y15	Z15	X16	Y16	Z16	X17	Y17	Z17	X18	Y18	Z18	X19	Y19	Z19	X20	Y20	Z20	X21	Y21	Z21	X22	Y22	Z22	X23	Y23	Z23	X24	Y24	Z24	X25	Y25	Z25	X26	Y26	Z26	X27	Y27	Z27	
143	2.3833333333333333	0.2522571857920181	0.9194290650948721	0.19576728450662667	0.26394630359969173	0.5118872989483965	0.16855422969284722	0.27837456389486	0.13774626930245204	0.19146354906139443	0.2529582643959926	0.09999817057705215	0.022218595496391772	0.3201490744371457	0.11014202346674104	0.0411677914697883	0.2607739714685934	0.06841939384503586	0.2703772538119183	0.016722913203034494	0.9082370303527504	0.19757078718557441	0.03960882540529961	0.4855217503812601	0.18066965037987814	0.050358896034449985	0.13410858711961668	0.2160795617594855	0.05018104499221512	0.08582671273227219	0.05797174375871221	0.010110534452170122	0.08730126862670935	0.07841421728445819	0.0688034155985622	0.09139020837938147	0.2600873305962079	0.10405461670574831	1.513341730106877	0.18736381201911878	0.06342377623974974	1.763917555077393	0.1241835541864022	0.0715979563201822	1.6399115867467082	0.06118594477895961	0.26385725702732055	1.4385784486637192	0.15860773910768738	0.3590427955985243	1.1933812433193107	0.14397467896356336	0.22790491798017148	1.0699024398260182	0.02691935491652278	0.10831089451691665	1.0374020711160437	0.009688757050924562	0.11277992389751529	0.9927462152863246	0.009914984695833962	0.1412904922471445	0.963080071009568	0.03431949158966341	-0.04928806218467886	1.4283815242398872	0.15824854101689298	-0.16298087722906474	1.2101378228251094	0.13538010511105386	-0.013848761910791261	1.0820339681080429	0.05444419822910357	0.08416569996405829	1.0675647017391758	0.0248995992207445	0.09499039450763552	1.022778292009377	0.037281927277531296	0.07092358584320942	0.9573096052911055	0.10206816563659571	
144	2.4	0.2523120192628725	0.920174369922644	0.19551618145816532	0.2639136207709031	0.5120804824676798	0.16870076684842428	0.27834277283731307	0.13694764394436623	0.19162513600025627	0.2522145876081017	0.10030368077143072	0.019675333643734694	0.3200959738502349	0.10853480347960538	0.0411063856814814	0.2611096893146465	0.06753346155710757	0.2714167108381571	0.016876099119836258	0.9089586574946373	0.19843165882078606	0.03954098048550323	0.4856237360661273	0.18038616369847615	0.050316666173180175	0.13289593402630517	0.21580370458631015	0.05154294125063265	0.08738254204177985	0.05306743042766249	0.010410905342752953	0.08652892111576047	0.07770531120308496	0.06867685577110624	0.08928650957713832	0.26019394449673394	0.10295635300583084	1.5129049629672968	0.18909834015521493	0.06443543236031041	1.7639734149605166	0.12380471102193369	0.07157404704120501	1.6399783300889215	0.06118500641112973	0.26356706882762354	1.4386840358484836	0.15823457955228568	0.3577061737911674	1.1917235346653436	0.14529526817110086	0.22737328353885672	1.0699244477272445	0.02645060287859477	0.10836906376291591	1.0383449291801659	0.009755026875089529	0.11257553972252655	0.9926962014241243	0.007684378479769355	0.14274443768629186	0.9623269537785932	0.032550858289905504	-0.04920221042289906	1.4286089288979766	0.15816945929991907	-0.16298255168036713	1.2105190718994077	0.13529654288981371	-0.013089894204332616	1.0866577980573022	0.049164868616971835	0.08394152899231913	1.072554095379596	0.016733512201945133	0.09569549878033216	1.0283091729908567	0.02947787697394988	0.07366430248228428	0.9631607884484152	0.09704862544888301	
145	2.4166666666666665	0.25233219434255166	0.9210774412055537	0.19531982807642248	0.2639546087470277	0.5123070151101319	0.1689354080698316	0.27837989053923096	0.1363720896395568	0.1914353033227238	0.2513892499819854	0.1008369251645168	0.016988733022736985	0.32008988909689173	0.1069070591600573	0.04117302940450811	0.2615434210479101	0.06676817760902194	0.2723830856431278	0.01694753189636539	0.9097873931327863	0.19917936936604339	0.03931825090828367	0.48593469004357087	0.17977759261225618	0.05030617211736881	0.13177272456158431	0.21551609582152279	0.052555390685395977	0.0874396655072861	0.050179209725486604	0.010705478516049836	0.08592799006709888	0.07746766480495366	0.06858249702528763	0.08718136726271725	0.26037072695423324	0.10232905996458501	1.5129958810786581	0.19017423635321096	0.06550573055536486	1.7639980209682842	0.12403121936410455	0.07154464589308077	1.6400052724292324	0.061165627690978164	0.2629642237381639	1.438732331547241	0.15792202215341886	0.3561877200320568	1.1903394042783384	0.14601979572058188	0.2267005668412983	1.0699333209835962	0.025899551159196676	0.1083501049390482	1.03897181154223	0.009379596739464063	0.11221808532245062	0.9925886497075542	0.0051310917038907	0.14425998976575705	0.9615634173253942	0.030834370132512084	-0.04916357943077693	1.429083287950732	0.1580752270830854	-0.16303664307696636	1.211103939633812	0.13517175572490536	-0.012915050047773987	1.0911307436029156	0.04452381861217547	0.08342807701800682	1.0776820783485275	0.00956379163238602	0.09605822514663959	1.0338735223368314	0.02268032346537044	0.07476762928244257	0.9709416957591639	0.08920235210240757	
146	2.433333333333333	0.25231369390330294	0.922165734194053	0.19514760383550636	0.26404273235454667	0.5126006689192233	0.16921861276336836	0.27851799767300456	0.13599095113820525	0.19110128439260768	0.2506034929912233	0.10145095222249145	0.014546144750221132	0.319931957768109	0.10580335239441578	0.040957157758148406	0.2620982050234981	0.06614938072075519	0.273289561419903	0.01693079958200878	0.9106441891869783	0.19977019639999388	0.03897585710567674	0.48636593212259815	0.17892002299819307	0.050342319113054694	0.1307552331864838	0.2152247660317137	0.05305524783369668	0.08589902080946812	0.04959893352752462	0.010940016170566558	0.08543780813361544	0.07740144302710782	0.06852128509827157	0.08528073922377677	0.26060616003827614	0.10217618053616281	1.5135320031268251	0.1905661290389084	0.06685906100098689	1.7639983698829833	0.12510984166695888	0.07146859004585682	1.6400066856025965	0.06111488167800094	0.2621678629943973	1.4386197897695066	0.1576630774411161	0.35446082603024776	1.1892037289959216	0.14641557393306331	0.22556732515520994	1.0695650143337847	0.02537714381861389	0.10818163128796635	1.0390293644434452	0.00832668143768614	0.1116451507902323	0.9923253312103261	0.0030151595829426003	0.14520749602701102	0.9606791578543674	0.029738775610080148	-0.04930832960385978	1.429758238565112	0.157961175601508	-0.163132728371463	1.211840864555674	0.13502115820962612	-0.01331603071649306	1.0953652466018302	0.040846927727003046	0.08268189323351588	1.0830786417473284	0.003615074997519424	0.09611369024091582	1.0394493574538273	0.017109061862098818	0.0744268635415797	0.9800954106712982	0.0791678073354079	
147	2.45	0.2522474192248563	0.9232624734777264	0.19501103137730993	0.26411178655716094	0.5129596170527211	0.16942667948204945	0.2787306199240459	0.13569421799731793	0.19081732114198643	0.2499722008132638	0.10199901303134379	0.012714140277662014	0.3195218175995507	0.10539685952438496	0.040169312738088166	0.26269268995498657	0.06560227609919136	0.2741318183527927	0.01682443281348485	0.9114132605626999	0.20014707566779155	0.038586362530707775	0.48682294494698186	0.17797001799229695	0.05040975378289067	0.12982804940593584	0.21494419431328912	0.05309300088952998	0.08332006553651522	0.05082791093964002	0.01105581748849786	0.08499808083840667	0.0773630644787112	0.0684986316828718	0.08378134403349086	0.26083576273574693	0.10229338795234102	1.5142652496350137	0.1905391953262754	0.06880822347141102	1.7640064558361561	0.12697187566710894	0.07132454769875866	1.63998719074822	0.061031032963285825	0.26132769094077907	1.4382927956979308	0.1573960697049136	0.35263891712448436	1.1881913187581543	0.14683954056678966	0.22374447802233877	1.068621100905833	0.025016283696889546	0.10787794196738479	1.0383791884080569	0.006634950942815632	0.11082084535160706	0.9918348502455707	0.001967869701754388	0.14514747183169738	0.9596496818594026	0.029388206262633776	-0.04972554407439321	1.4305441641634515	0.1578367954460905	-0.16323930835592257	1.2126385126879908	0.13486672548040413	-0.013978974179653521	1.0993699475341103	0.0380803516908918	0.08173093215769756	1.0888612585358002	-0.001291992763734151	0.09580011090930302	1.0451155191941324	0.012911936571501526	0.07311298798793123	0.9896843317566404	0.06838757944785984	
